<?xml version="1.0" encoding="UTF-8" standalone="no"?>
<svg width="1440" height="120" viewBox="0 0 1440 120" fill="none" xmlns="http://www.w3.org/2000/svg">
  <path d="M0 0L48 8.3C96 17.3 192 33.3 288 42.2C384 50.7 480 50.7 576 58.8C672 67.3 768 83.3 864 83.3C960 83.3 1056 67.3 1152 50.7C1248 33.3 1344 17.3 1392 8.3L1440 0V120H1392C1344 120 1248 120 1152 120C1056 120 960 120 864 120C768 120 672 120 576 120C480 120 384 120 288 120C192 120 96 120 48 120H0V0Z" fill="#F9FAFB" fill-opacity="0.8"/>
</svg>
